<svg width="201" height="36" viewBox="0 0 201 36" fill="none" xmlns="http://www.w3.org/2000/svg">
<path d="M26.8 32.435C26.35 32.765 25.645 33.17 24.685 33.65C23.725 34.13 22.585 34.55 21.265 34.91C19.945 35.24 18.505 35.39 16.945 35.36C14.365 35.33 12.055 34.88 10.015 34.01C8.005 33.11 6.28 31.91 4.84 30.41C3.43 28.88 2.35 27.14 1.6 25.19C0.85 23.21 0.475 21.095 0.475 18.845C0.475 16.385 0.865 14.12 1.645 12.05C2.455 9.98 3.565 8.18 4.975 6.65C6.415 5.12 8.125 3.935 10.105 3.095C12.085 2.255 14.245 1.835 16.585 1.835C18.655 1.835 20.515 2.12 22.165 2.69C23.815 3.26 25.195 3.89 26.305 4.58L24.19 9.575C23.35 8.975 22.3 8.39 21.04 7.82C19.78 7.25 18.355 6.965 16.765 6.965C14.845 6.965 13.06 7.49 11.41 8.54C9.79 9.56 8.485 10.94 7.495 12.68C6.505 14.42 6.01 16.385 6.01 18.575C6.01 20.825 6.46 22.835 7.36 24.605C8.26 26.345 9.535 27.725 11.185 28.745C12.865 29.735 14.815 30.23 17.035 30.23C18.745 30.23 20.23 29.975 21.49 29.465C22.78 28.925 23.8 28.325 24.55 27.665L26.8 32.435ZM31.7641 18.62C31.7641 16.37 32.1991 14.24 33.0691 12.23C33.9391 10.19 35.1391 8.405 36.6691 6.875C38.1991 5.315 39.9691 4.085 41.9791 3.185C44.0191 2.285 46.1791 1.835 48.4591 1.835C50.7691 1.835 52.9291 2.285 54.9391 3.185C56.9791 4.085 58.7791 5.315 60.3391 6.875C61.8991 8.405 63.1141 10.19 63.9841 12.23C64.8541 14.24 65.2891 16.37 65.2891 18.62C65.2891 20.96 64.8541 23.135 63.9841 25.145C63.1141 27.155 61.8991 28.94 60.3391 30.5C58.7791 32.03 56.9791 33.23 54.9391 34.1C52.9291 34.94 50.7691 35.36 48.4591 35.36C46.1791 35.36 44.0191 34.94 41.9791 34.1C39.9691 33.23 38.1991 32.045 36.6691 30.545C35.1391 29.015 33.9391 27.23 33.0691 25.19C32.1991 23.15 31.7641 20.96 31.7641 18.62ZM37.2541 18.665C37.2541 20.795 37.7491 22.745 38.7391 24.515C39.7591 26.255 41.1241 27.65 42.8341 28.7C44.5741 29.72 46.5091 30.23 48.6391 30.23C50.7391 30.23 52.6291 29.72 54.3091 28.7C55.9891 27.65 57.3241 26.255 58.3141 24.515C59.3041 22.745 59.7991 20.78 59.7991 18.62C59.7991 16.46 59.2891 14.495 58.2691 12.725C57.2791 10.955 55.9291 9.56 54.2191 8.54C52.5091 7.49 50.6041 6.965 48.5041 6.965C46.4041 6.965 44.4991 7.49 42.7891 8.54C41.0791 9.59 39.7291 11 38.7391 12.77C37.7491 14.54 37.2541 16.505 37.2541 18.665ZM70.2602 18.62C70.2602 16.37 70.6952 14.24 71.5652 12.23C72.4352 10.19 73.6352 8.405 75.1652 6.875C76.6952 5.315 78.4652 4.085 80.4752 3.185C82.5152 2.285 84.6752 1.835 86.9552 1.835C89.2652 1.835 91.4252 2.285 93.4352 3.185C95.4752 4.085 97.2752 5.315 98.8352 6.875C100.395 8.405 101.61 10.19 102.48 12.23C103.35 14.24 103.785 16.37 103.785 18.62C103.785 20.96 103.35 23.135 102.48 25.145C101.61 27.155 100.395 28.94 98.8352 30.5C97.2752 32.03 95.4752 33.23 93.4352 34.1C91.4252 34.94 89.2652 35.36 86.9552 35.36C84.6752 35.36 82.5152 34.94 80.4752 34.1C78.4652 33.23 76.6952 32.045 75.1652 30.545C73.6352 29.015 72.4352 27.23 71.5652 25.19C70.6952 23.15 70.2602 20.96 70.2602 18.62ZM75.7502 18.665C75.7502 20.795 76.2452 22.745 77.2352 24.515C78.2552 26.255 79.6202 27.65 81.3302 28.7C83.0702 29.72 85.0052 30.23 87.1352 30.23C89.2352 30.23 91.1252 29.72 92.8052 28.7C94.4852 27.65 95.8202 26.255 96.8102 24.515C97.8002 22.745 98.2952 20.78 98.2952 18.62C98.2952 16.46 97.7852 14.495 96.7652 12.725C95.7752 10.955 94.4252 9.56 92.7152 8.54C91.0052 7.49 89.1002 6.965 87.0002 6.965C84.9002 6.965 82.9952 7.49 81.2852 8.54C79.5752 9.59 78.2252 11 77.2352 12.77C76.2452 14.54 75.7502 16.505 75.7502 18.665ZM116.181 14.705L116.046 16.37L116.766 15.335L128.961 2.195H135.846L122.301 16.595L136.296 35H129.546L118.386 19.925L116.136 22.13L116.181 35H110.781V2.195H116.181V14.705ZM139.511 35C139.691 34.73 140.081 34.145 140.681 33.245C141.281 32.345 142.016 31.22 142.886 29.87C143.786 28.52 144.761 27.035 145.811 25.415C146.861 23.765 147.941 22.1 149.051 20.42C150.161 18.71 151.241 17.045 152.291 15.425C153.341 13.805 154.301 12.32 155.171 10.97C156.041 9.62 156.776 8.495 157.376 7.595C157.976 6.695 158.381 6.125 158.591 5.885L159.221 7.325H145.586C144.986 7.325 144.371 7.205 143.741 6.965C143.141 6.725 142.631 6.38 142.211 5.93C141.821 5.48 141.626 4.955 141.626 4.355V0.574998H146.531V1.16C146.531 1.76 146.636 2.09 146.846 2.15C147.056 2.18 147.416 2.195 147.926 2.195H166.961L148.241 30.5L147.926 29.87H167.231V35H139.511ZM182.701 24.38L170.596 2.195H177.166L186.346 19.835L184.726 19.925L193.771 2.195H200.296L188.056 24.38V35H182.701V24.38Z" fill="#FE9E0D"/>
</svg>
